<svg id="visual" viewBox="0 0 900 600" width="900" height="600" xmlns="http://www.w3.org/2000/svg" xmlns:xlink="http://www.w3.org/1999/xlink" version="1.1"><rect x="0" y="0" width="900" height="600" fill="#c6d8a7"></rect><defs><linearGradient id="grad1_0" x1="33.3%" y1="0%" x2="100%" y2="100%"><stop offset="20%" stop-color="#b4dc7f" stop-opacity="1"></stop><stop offset="80%" stop-color="#b4dc7f" stop-opacity="1"></stop></linearGradient></defs><defs><linearGradient id="grad1_1" x1="33.3%" y1="0%" x2="100%" y2="100%"><stop offset="20%" stop-color="#b4dc7f" stop-opacity="1"></stop><stop offset="80%" stop-color="#b9db89" stop-opacity="1"></stop></linearGradient></defs><defs><linearGradient id="grad1_2" x1="33.3%" y1="0%" x2="100%" y2="100%"><stop offset="20%" stop-color="#beda93" stop-opacity="1"></stop><stop offset="80%" stop-color="#b9db89" stop-opacity="1"></stop></linearGradient></defs><defs><linearGradient id="grad1_3" x1="33.3%" y1="0%" x2="100%" y2="100%"><stop offset="20%" stop-color="#beda93" stop-opacity="1"></stop><stop offset="80%" stop-color="#c2d99d" stop-opacity="1"></stop></linearGradient></defs><defs><linearGradient id="grad1_4" x1="33.3%" y1="0%" x2="100%" y2="100%"><stop offset="20%" stop-color="#c6d8a7" stop-opacity="1"></stop><stop offset="80%" stop-color="#c2d99d" stop-opacity="1"></stop></linearGradient></defs><defs><linearGradient id="grad2_0" x1="0%" y1="0%" x2="66.7%" y2="100%"><stop offset="20%" stop-color="#b4dc7f" stop-opacity="1"></stop><stop offset="80%" stop-color="#b4dc7f" stop-opacity="1"></stop></linearGradient></defs><defs><linearGradient id="grad2_1" x1="0%" y1="0%" x2="66.7%" y2="100%"><stop offset="20%" stop-color="#b9db89" stop-opacity="1"></stop><stop offset="80%" stop-color="#b4dc7f" stop-opacity="1"></stop></linearGradient></defs><defs><linearGradient id="grad2_2" x1="0%" y1="0%" x2="66.7%" y2="100%"><stop offset="20%" stop-color="#b9db89" stop-opacity="1"></stop><stop offset="80%" stop-color="#beda93" stop-opacity="1"></stop></linearGradient></defs><defs><linearGradient id="grad2_3" x1="0%" y1="0%" x2="66.7%" y2="100%"><stop offset="20%" stop-color="#c2d99d" stop-opacity="1"></stop><stop offset="80%" stop-color="#beda93" stop-opacity="1"></stop></linearGradient></defs><defs><linearGradient id="grad2_4" x1="0%" y1="0%" x2="66.7%" y2="100%"><stop offset="20%" stop-color="#c2d99d" stop-opacity="1"></stop><stop offset="80%" stop-color="#c6d8a7" stop-opacity="1"></stop></linearGradient></defs><g transform="translate(900, 0)"><path d="M0 540.8C-51.2 452.4 -102.3 364 -190.5 330C-278.7 295.9 -403.8 316.3 -468.4 270.4C-532.9 224.5 -536.9 112.2 -540.8 0L0 0Z" fill="#c4d8a2"></path><path d="M0 432.7C-40.9 361.9 -81.9 291.2 -152.4 264C-222.9 236.8 -323.1 253.1 -374.7 216.3C-426.3 179.6 -429.5 89.8 -432.7 0L0 0Z" fill="#c0d998"></path><path d="M0 324.5C-30.7 271.4 -61.4 218.4 -114.3 198C-167.2 177.6 -242.3 189.8 -281 162.2C-319.8 134.7 -322.1 67.3 -324.5 0L0 0Z" fill="#bbdb8e"></path><path d="M0 216.3C-20.5 181 -40.9 145.6 -76.2 132C-111.5 118.4 -161.5 126.5 -187.3 108.2C-213.2 89.8 -214.8 44.9 -216.3 0L0 0Z" fill="#b7dc84"></path><path d="M0 108.2C-10.2 90.5 -20.5 72.8 -38.1 66C-55.7 59.2 -80.8 63.3 -93.7 54.1C-106.6 44.9 -107.4 22.4 -108.2 0L0 0Z" fill="#b4dc7f"></path></g><g transform="translate(0, 600)"><path d="M0 -540.8C121.1 -542 242.3 -543.2 270.4 -468.4C298.6 -393.6 233.7 -242.7 263.3 -152C292.8 -61.3 416.8 -30.6 540.8 0L0 0Z" fill="#c4d8a2"></path><path d="M0 -432.7C96.9 -433.6 193.8 -434.6 216.3 -374.7C238.8 -314.8 187 -194.2 210.6 -121.6C234.3 -49 333.5 -24.5 432.7 0L0 0Z" fill="#c0d998"></path><path d="M0 -324.5C72.7 -325.2 145.4 -325.9 162.2 -281C179.1 -236.1 140.2 -145.6 158 -91.2C175.7 -36.8 250.1 -18.4 324.5 0L0 0Z" fill="#bbdb8e"></path><path d="M0 -216.3C48.5 -216.8 96.9 -217.3 108.2 -187.3C119.4 -157.4 93.5 -97.1 105.3 -60.8C117.1 -24.5 166.7 -12.3 216.3 0L0 0Z" fill="#b7dc84"></path><path d="M0 -108.2C24.2 -108.4 48.5 -108.6 54.1 -93.7C59.7 -78.7 46.7 -48.5 52.7 -30.4C58.6 -12.3 83.4 -6.1 108.2 0L0 0Z" fill="#b4dc7f"></path></g></svg>