<svg id="visual" viewBox="0 0 900 600" width="900" height="600" xmlns="http://www.w3.org/2000/svg" xmlns:xlink="http://www.w3.org/1999/xlink" version="1.1"><path d="M0 591L30 583.3C60 575.7 120 560.3 180 559.2C240 558 300 571 360 578.8C420 586.7 480 589.3 540 587.3C600 585.3 660 578.7 720 579C780 579.3 840 586.7 870 590.3L900 594L900 601L870 601C840 601 780 601 720 601C660 601 600 601 540 601C480 601 420 601 360 601C300 601 240 601 180 601C120 601 60 601 30 601L0 601Z" fill="#B4DC7F" stroke-linecap="round" stroke-linejoin="miter"></path></svg>